<?xml version="1.0" encoding="UTF-8" standalone="no"?>
<svg width="195px" height="343px" viewBox="0 0 195 343" version="1.1" xmlns="http://www.w3.org/2000/svg" xmlns:xlink="http://www.w3.org/1999/xlink" xmlns:sketch="http://www.bohemiancoding.com/sketch/ns">
    <!-- Generator: Sketch 3.0.1 (7597) - http://www.bohemiancoding.com/sketch -->
    <title>tangram_man</title>
    <description>Created with Sketch.</description>
    <defs></defs>
    <g id="Page-1" stroke="none" stroke-width="1" fill="none" fill-rule="evenodd" sketch:type="MSPage">
        <g id="Desktop-HD" sketch:type="MSArtboardGroup" transform="translate(-270.000000, -2324.000000)" stroke="#FFFFFF">
            <g id="tangram_man" sketch:type="MSLayerGroup" transform="translate(271.000000, 2324.000000)">
                <path d="M0,80 L56.5685425,136.568542 L113.137085,193.137085 L113.137085,80 L0,80 L0,80 Z" id="Rectangle-40" fill="#2C97A6" sketch:type="MSShapeGroup"></path>
                <path d="M142,222 L62,142 L62,222 L62,302 L142,222 L142,222 Z" id="Rectangle-40" fill="#3FA8E0" sketch:type="MSShapeGroup"></path>
                <path d="M56,40 L96,80 L136,40 L96,0 L56,40 Z" id="Rectangle-40" fill="#69B978" sketch:type="MSShapeGroup"></path>
                <path d="M193,160 L193,80 L113,160 L193,160 Z" id="Rectangle-40" fill="#46BCC0" sketch:type="MSShapeGroup" transform="translate(153.000000, 120.000000) rotate(-180.000000) translate(-153.000000, -120.000000) "></path>
                <path d="M61,262 L21,302 L61,342 L61,262 Z" id="Rectangle-40" fill="#3B7BBE" sketch:type="MSShapeGroup"></path>
                <path d="M142,222 L142,302 L102,342 L102,262 L142,222 Z" id="Rectangle-40" fill="#238BCA" sketch:type="MSShapeGroup"></path>
                <path d="M103,342 L183,342 L143,302 L103,342 Z" id="Rectangle-40" fill="#1E5A96" sketch:type="MSShapeGroup"></path>
            </g>
        </g>
    </g>
</svg>